<svg width="1000" height="1098" viewBox="0 0 1000 1098" fill="none" xmlns="http://www.w3.org/2000/svg">
<path d="M249.182 864.07L411.471 966.554V761.586L249.182 659.102V864.07Z" fill="#497ADF"/>
<path d="M573.761 864.07V659.102L411.471 761.586V966.554L573.761 864.07Z" fill="#2350B0"/>
<path d="M573.761 659.102L411.471 556.618L249.182 659.102L411.471 761.586L573.761 659.102Z" fill="#4682FF"/>
<path d="M249.182 642.777L411.471 745.261V540.293L249.182 437.809V642.777Z" fill="#497ADF"/>
<path d="M573.761 642.777V437.809L411.471 540.293V745.261L573.761 642.777Z" fill="#2350B0"/>
<path d="M573.761 437.809L411.471 335.325L249.182 437.809L411.471 540.293L573.761 437.809Z" fill="#4682FF"/>
<path d="M249.182 417.252L411.471 519.736V314.768L249.182 212.284V417.252Z" fill="#497ADF"/>
<path d="M573.761 417.252V212.284L411.471 314.768V519.736L573.761 417.252Z" fill="#2350B0"/>
<path d="M573.761 212.284L411.471 109.8L249.182 212.284L411.471 314.768L573.761 212.284Z" fill="#4682FF"/>
<path d="M566 980.35L613.045 1007.8V952.9L566 925.45V980.35Z" fill="#497ADF"/>
<path d="M660.091 980.35V925.45L613.045 952.9V1007.8L660.091 980.35Z" fill="#2350B0"/>
<path d="M660.091 925.45L613.045 898L566 925.45L613.045 952.9L660.091 925.45Z" fill="#4682FF"/>
<path d="M613 280L612 925" stroke="#0C0C0C" stroke-width="2"/>
<path d="M426.421 532.977L588.71 635.461V430.493L426.421 328.009V532.977Z" fill="#497ADF"/>
<path d="M751 532.977V328.009L588.71 430.493V635.461L751 532.977Z" fill="#2350B0"/>
<path d="M751 328.009L588.71 225.525L426.421 328.009L588.71 430.493L751 328.009Z" fill="#4682FF"/>
</svg>
